<svg width="20" height="20" viewBox="0 0 20 20" fill="none" xmlns="http://www.w3.org/2000/svg">
<g id="alert-circle-outline" opacity="0.2">
<rect id="Rectangle" opacity="0.01" width="20" height="20" fill="black"/>
<path id="Shape" fill-rule="evenodd" clip-rule="evenodd" d="M1.66663 10C1.66663 5.39765 5.39759 1.66669 9.99996 1.66669C12.2101 1.66669 14.3297 2.54466 15.8925 4.10746C17.4553 5.67027 18.3333 7.78988 18.3333 10C18.3333 14.6024 14.6023 18.3334 9.99996 18.3334C5.39759 18.3334 1.66663 14.6024 1.66663 10ZM3.33329 10C3.33329 13.6819 6.31806 16.6667 9.99996 16.6667C11.7681 16.6667 13.4638 15.9643 14.714 14.7141C15.9642 13.4638 16.6666 11.7681 16.6666 10C16.6666 6.31812 13.6819 3.33335 9.99996 3.33335C6.31806 3.33335 3.33329 6.31812 3.33329 10Z" fill="black"/>
<path id="Oval" d="M9.99996 14.1667C10.4602 14.1667 10.8333 13.7936 10.8333 13.3333C10.8333 12.8731 10.4602 12.5 9.99996 12.5C9.53972 12.5 9.16663 12.8731 9.16663 13.3333C9.16663 13.7936 9.53972 14.1667 9.99996 14.1667Z" fill="black"/>
<path id="Path" d="M9.99996 5.83331C9.53972 5.83331 9.16663 6.20641 9.16663 6.66665V10.8333C9.16663 11.2936 9.53972 11.6666 9.99996 11.6666C10.4602 11.6666 10.8333 11.2936 10.8333 10.8333V6.66665C10.8333 6.20641 10.4602 5.83331 9.99996 5.83331Z" fill="black"/>
</g>
</svg>
