<svg width="16" height="16" viewBox="0 0 16 16" fill="none" xmlns="http://www.w3.org/2000/svg">
<g id="attach-outline" opacity="0.2">
<rect id="Rectangle" opacity="0.01" width="16" height="16" fill="black"/>
<path id="Path" d="M6.19329 14C5.08071 13.9947 4.0168 13.5432 3.23996 12.7467C2.46908 12.016 2.02043 11.0088 1.99292 9.94708C1.96541 8.88534 2.36129 7.85624 3.09329 7.08667L7.99996 2.13334C8.52945 1.60481 9.25203 1.31578 9.99996 1.33334C10.8008 1.33606 11.5671 1.66033 12.1266 2.23334C13.274 3.33807 13.3186 5.16047 12.2266 6.32L7.29329 11.2733C6.97412 11.5947 6.53953 11.7747 6.08662 11.7733C5.59728 11.774 5.12845 11.5768 4.78662 11.2267C4.08278 10.5452 4.05899 9.42405 4.73329 8.71334L9.28662 4.14C9.55399 3.96244 9.90993 4.00058 10.1336 4.23078C10.3573 4.46097 10.3851 4.81786 10.2 5.08L5.64662 9.65334C5.48866 9.84365 5.51239 10.1255 5.69996 10.2867C5.79377 10.3811 5.92023 10.436 6.05329 10.44C6.15285 10.4414 6.24885 10.403 6.31996 10.3333L11.2466 5.38C11.822 4.74076 11.7775 3.75791 11.1466 3.17334C10.5619 2.56624 9.6045 2.52232 8.96662 3.07334L4.03996 8C3.55609 8.51971 3.29948 9.21095 3.32701 9.92051C3.35454 10.6301 3.66394 11.2993 4.18663 11.78C4.71087 12.3235 5.43156 12.6333 6.18663 12.64C6.83754 12.6453 7.46372 12.391 7.92662 11.9333L12.8533 6.98C13.1129 6.71859 13.5352 6.7171 13.7966 6.97667C14.058 7.23624 14.0595 7.65859 13.8 7.92L8.87329 12.8733C8.16672 13.5924 7.2014 13.9982 6.19329 14Z" fill="black"/>
</g>
</svg>
