<svg width="20" height="20" viewBox="0 0 20 20" fill="none" xmlns="http://www.w3.org/2000/svg">
<g id="bell-outline" opacity="0.2">
<rect id="Rectangle" opacity="0.01" width="20" height="20" fill="black"/>
<path id="Shape" fill-rule="evenodd" clip-rule="evenodd" d="M17.1001 12.675L15.6001 11.1667V7.45003C15.6413 4.59615 13.5713 2.1491 10.7501 1.71669C9.14819 1.50574 7.53307 1.99483 6.31733 3.05899C5.10159 4.12316 4.40301 5.65933 4.40006 7.27503V11.1667L2.90006 12.675C2.51486 13.0666 2.40157 13.6508 2.61246 14.1581C2.82334 14.6653 3.31742 14.9969 3.86672 15H6.66672V15.2834C6.74777 17.0448 8.23841 18.4087 10.0001 18.3334C11.7617 18.4087 13.2523 17.0448 13.3334 15.2834V15H16.1334C16.6827 14.9969 17.1768 14.6653 17.3877 14.1581C17.5985 13.6508 17.4853 13.0666 17.1001 12.675ZM11.6667 15.2834C11.5707 16.1161 10.8362 16.7257 10.0001 16.6667C9.16389 16.7257 8.4294 16.1161 8.33339 15.2834V15H11.6667V15.2834ZM5.57506 12.35L4.59172 13.3334H15.4084L14.4167 12.35C14.1047 12.0355 13.9308 11.6097 13.9334 11.1667V7.41669C13.9761 5.39844 12.526 3.6569 10.5334 3.33336C9.4018 3.18568 8.26241 3.54211 7.41672 4.30836C6.55979 5.05617 6.06764 6.13768 6.06672 7.27503V11.1667C6.06708 11.6109 5.89009 12.0369 5.57506 12.35Z" fill="black"/>
</g>
</svg>
