<svg width="23" height="24" viewBox="0 0 23 24" fill="none" xmlns="http://www.w3.org/2000/svg">
<g id="Hard">
<g id="Hard_2" opacity="0.2">
<rect id="Rectangle" opacity="0.01" x="7" y="4" width="16" height="16" fill="black"/>
<path id="Shape" fill-rule="evenodd" clip-rule="evenodd" d="M20.86 11.56L18.6333 7.10667C18.2941 6.42723 17.5994 5.99851 16.84 6H13.16C12.4006 5.99851 11.7059 6.42723 11.3667 7.10667L9.14001 11.56C9.04714 11.7463 8.99919 11.9518 9.00001 12.16V16C9.00001 17.1046 9.89544 18 11 18H19C20.1046 18 21 17.1046 21 16V12.16C21.0008 11.9518 20.9529 11.7463 20.86 11.56ZM12.56 7.7C12.6741 7.47367 12.9066 7.33157 13.16 7.33334H16.84C17.0934 7.33157 17.326 7.47367 17.44 7.7L19.2533 11.3333H10.7467L12.56 7.7ZM11 16.6667H19C19.3682 16.6667 19.6667 16.3682 19.6667 16V12.6667H10.3333V16C10.3333 16.3682 10.6318 16.6667 11 16.6667Z" fill="black"/>
<path id="Path" d="M17.3333 11H14.6667C14.2985 11 14 11.2985 14 11.6667C14 12.0349 14.2985 12.3333 14.6667 12.3333H17.3333C17.7015 12.3333 18 12.0349 18 11.6667C18 11.2985 17.7015 11 17.3333 11Z" fill="black"/>
<path id="Oval" d="M12.6667 12.3333C13.0349 12.3333 13.3333 12.0349 13.3333 11.6667C13.3333 11.2985 13.0349 11 12.6667 11C12.2985 11 12 11.2985 12 11.6667C12 12.0349 12.2985 12.3333 12.6667 12.3333Z" fill="black"/>
</g>
<rect id="Rectangle_2" opacity="0.1" width="1" height="24" rx="0.5" fill="black"/>
</g>
</svg>
