<svg width="20" height="20" viewBox="0 0 20 20" fill="none" xmlns="http://www.w3.org/2000/svg">
<g id="plus-circle-outline" opacity="0.2">
<rect id="Rectangle" opacity="0.01" width="20" height="20" fill="black"/>
<path id="Shape" fill-rule="evenodd" clip-rule="evenodd" d="M1.66663 10C1.66663 5.39765 5.39759 1.66669 9.99996 1.66669C12.2101 1.66669 14.3297 2.54466 15.8925 4.10746C17.4553 5.67027 18.3333 7.78988 18.3333 10C18.3333 14.6024 14.6023 18.3334 9.99996 18.3334C5.39759 18.3334 1.66663 14.6024 1.66663 10ZM3.33329 10C3.33329 13.6819 6.31806 16.6667 9.99996 16.6667C11.7681 16.6667 13.4638 15.9643 14.714 14.7141C15.9642 13.4638 16.6666 11.7681 16.6666 10C16.6666 6.31812 13.6819 3.33335 9.99996 3.33335C6.31806 3.33335 3.33329 6.31812 3.33329 10Z" fill="black"/>
<path id="Path" d="M12.5 9.16669H10.8333V7.50002C10.8333 7.03978 10.4602 6.66669 9.99996 6.66669C9.53972 6.66669 9.16663 7.03978 9.16663 7.50002V9.16669H7.49996C7.03972 9.16669 6.66663 9.53978 6.66663 10C6.66663 10.4603 7.03972 10.8334 7.49996 10.8334H9.16663V12.5C9.16663 12.9603 9.53972 13.3334 9.99996 13.3334C10.4602 13.3334 10.8333 12.9603 10.8333 12.5V10.8334H12.5C12.9602 10.8334 13.3333 10.4603 13.3333 10C13.3333 9.53978 12.9602 9.16669 12.5 9.16669Z" fill="black"/>
</g>
</svg>
